<?xml version="1.0" standalone="no"?>
<!DOCTYPE svg PUBLIC "-//W3C//DTD SVG 20010904//EN"
 "http://www.w3.org/TR/2001/REC-SVG-20010904/DTD/svg10.dtd">
<svg version="1.0" xmlns="http://www.w3.org/2000/svg"
 width="4500.000000pt" height="4500.000000pt" viewBox="0 0 4500.000000 4500.000000"
 preserveAspectRatio="xMidYMid meet">

<g transform="translate(0.000000,4500.000000) scale(0.100000,-0.100000)"
fill="#000000" stroke="none">
<path d="M22055 43319 c-657 -22 -1097 -50 -1545 -99 -47 -5 -155 -17 -240
-25 -278 -29 -923 -118 -1150 -161 -47 -8 -173 -31 -280 -51 -107 -19 -213
-38 -235 -43 -22 -4 -132 -26 -245 -49 -113 -23 -227 -47 -255 -55 -27 -7 -77
-19 -110 -26 -104 -22 -692 -168 -880 -219 -592 -161 -1346 -404 -1860 -601
-88 -34 -202 -77 -253 -96 -52 -19 -113 -43 -137 -54 -24 -11 -46 -20 -48 -20
-7 0 -408 -168 -562 -235 -71 -31 -159 -69 -195 -85 -67 -28 -90 -39 -365
-167 -282 -132 -876 -433 -1090 -553 -16 -9 -66 -36 -110 -60 -44 -24 -206
-117 -360 -206 -246 -142 -348 -204 -658 -397 -97 -60 -687 -453 -779 -518
-236 -168 -332 -237 -513 -373 -333 -249 -620 -476 -954 -756 -96 -80 -190
-158 -211 -175 -70 -58 -395 -341 -509 -444 -614 -555 -1288 -1235 -1734
-1751 -223 -257 -331 -385 -412 -484 -165 -203 -213 -262 -412 -516 -310 -394
-828 -1142 -1124 -1621 -46 -74 -107 -172 -135 -219 -55 -88 -75 -123 -236
-400 -100 -173 -213 -377 -290 -520 -25 -47 -65 -121 -88 -165 -58 -107 -370
-732 -370 -739 0 -4 -22 -52 -49 -109 -65 -136 -171 -366 -171 -372 0 -2 -14
-35 -31 -72 -17 -38 -44 -101 -60 -141 -16 -41 -39 -92 -50 -113 -30 -60 -305
-755 -379 -959 -203 -560 -375 -1096 -537 -1675 -58 -209 -204 -790 -240 -960
-25 -118 -37 -176 -53 -245 -9 -38 -42 -206 -95 -480 -34 -175 -111 -617 -125
-720 -18 -129 -73 -539 -89 -670 -20 -155 -37 -328 -91 -935 -34 -391 -50
-854 -50 -1500 0 -659 15 -1109 51 -1515 57 -660 80 -886 109 -1100 5 -36 14
-99 19 -140 11 -87 38 -288 50 -375 15 -105 109 -644 140 -800 16 -82 40 -199
52 -260 11 -60 25 -126 29 -145 4 -19 22 -102 40 -185 74 -352 279 -1140 385
-1480 140 -454 159 -510 273 -840 116 -332 165 -469 207 -575 19 -47 66 -168
106 -270 39 -102 79 -203 89 -225 10 -22 36 -85 58 -140 263 -652 781 -1704
1155 -2345 27 -47 68 -116 90 -155 299 -517 680 -1104 1051 -1620 1426 -1988
3180 -3694 5203 -5060 146 -99 566 -371 633 -411 19 -12 85 -52 145 -89 245
-152 614 -366 870 -505 223 -122 314 -170 560 -296 562 -287 1083 -525 1690
-771 1087 -439 2279 -808 3350 -1034 105 -22 208 -44 230 -49 41 -8 180 -35
500 -96 155 -30 415 -72 795 -129 52 -8 178 -24 280 -36 102 -12 214 -25 250
-29 197 -23 462 -50 585 -60 185 -14 511 -37 710 -50 572 -38 1566 -38 2155 0
293 18 459 30 600 41 232 17 572 49 635 59 33 5 123 17 200 25 294 32 389 45
575 75 63 11 192 31 285 45 278 41 1085 199 1320 258 55 14 168 41 250 61 222
53 861 222 877 233 5 2 68 22 141 43 286 82 835 262 1127 370 47 18 96 35 110
40 96 29 722 278 960 380 80 35 179 78 220 95 279 120 644 293 1019 483 466
236 684 355 1186 647 206 120 420 252 710 438 331 213 476 311 928 631 355
251 946 716 1342 1055 614 525 998 894 1690 1621 142 149 481 534 680 770 44
52 82 97 85 100 6 6 76 93 226 280 1040 1298 1972 2813 2673 4342 98 214 132
290 154 343 14 33 55 130 91 215 267 624 520 1315 736 2010 77 247 215 736
264 935 19 77 48 194 64 260 59 236 104 433 138 595 18 91 41 197 49 235 9 39
31 158 51 265 19 107 39 218 44 245 13 72 57 339 80 490 11 72 25 155 30 185
9 52 47 360 70 570 6 52 17 147 25 210 23 187 46 469 74 910 6 85 16 245 23
355 17 269 18 1643 1 1880 -7 94 -17 253 -23 355 -24 403 -66 895 -80 950 -6
19 -10 55 -10 79 0 24 -4 72 -9 105 -6 34 -17 126 -26 206 -9 80 -23 190 -31
245 -29 195 -33 221 -43 280 -5 33 -14 92 -20 130 -28 182 -116 671 -151 835
-11 52 -30 140 -41 195 -21 102 -36 168 -107 470 -44 187 -147 592 -163 640
-5 17 -27 93 -48 170 -87 311 -206 701 -301 980 -34 99 -76 225 -95 280 -19
55 -46 132 -60 170 -15 39 -33 90 -42 115 -8 25 -25 72 -38 105 -13 33 -62
161 -110 285 -48 124 -93 239 -100 255 -8 17 -28 66 -45 110 -17 44 -52 127
-77 185 -25 58 -52 119 -59 135 -7 17 -26 60 -43 98 -17 37 -31 70 -31 73 0
15 -297 647 -416 886 -89 178 -252 490 -312 598 -14 25 -51 93 -83 151 -32 59
-102 183 -155 275 -54 93 -114 198 -134 234 -21 36 -60 101 -87 145 -27 44
-65 105 -83 135 -511 840 -1158 1744 -1784 2489 -67 79 -132 158 -146 176 -32
41 -263 302 -455 514 -544 601 -1389 1420 -1916 1856 -20 17 -101 84 -180 150
-889 740 -1810 1386 -2819 1975 -247 144 -252 147 -460 260 -297 162 -373 202
-628 330 -378 189 -635 311 -907 430 -66 29 -158 69 -205 90 -101 46 -137 60
-475 197 -359 145 -710 276 -915 342 -47 15 -123 41 -170 58 -215 78 -728 236
-1085 335 -60 16 -146 40 -190 53 -44 13 -120 33 -170 44 -49 12 -128 31 -175
42 -170 42 -327 79 -395 95 -38 8 -106 24 -150 34 -44 11 -161 36 -260 56
-246 49 -263 53 -320 63 -83 14 -407 73 -450 81 -55 10 -228 37 -355 56 -58 8
-134 19 -170 25 -249 38 -404 56 -930 110 -760 77 -1762 113 -2495 88z m1265
-929 c102 -6 307 -17 455 -25 149 -9 308 -20 355 -25 47 -5 139 -14 205 -20
66 -6 152 -15 190 -20 39 -5 117 -14 175 -20 282 -29 329 -38 429 -84 208 -96
280 -129 366 -171 176 -85 327 -155 332 -155 3 0 42 -18 86 -39 106 -51 282
-134 477 -226 349 -164 930 -461 1210 -618 181 -101 490 -278 527 -302 17 -11
58 -36 90 -56 370 -228 676 -435 998 -677 108 -82 378 -296 435 -346 20 -17
65 -56 100 -86 407 -349 924 -867 1293 -1294 44 -50 102 -118 130 -150 66 -76
310 -382 404 -506 274 -364 539 -776 786 -1220 148 -266 480 -934 577 -1160
15 -36 54 -121 85 -190 103 -228 192 -432 300 -685 170 -400 201 -476 306
-737 21 -54 47 -117 58 -140 10 -24 26 -64 35 -91 9 -26 34 -93 55 -150 52
-134 92 -245 147 -397 24 -69 47 -132 50 -140 11 -26 223 -650 259 -760 72
-225 237 -715 305 -905 39 -110 75 -211 79 -225 12 -37 106 -278 155 -400 24
-58 67 -163 96 -235 70 -172 187 -451 207 -495 9 -19 33 -78 54 -130 20 -52
63 -156 94 -230 66 -156 139 -330 200 -480 23 -58 69 -166 100 -240 32 -74 75
-175 95 -225 51 -121 138 -318 193 -435 110 -235 134 -286 224 -465 189 -378
413 -775 698 -1240 37 -60 80 -131 96 -158 16 -26 37 -60 48 -75 10 -15 52
-79 92 -142 129 -205 559 -843 737 -1095 15 -22 75 -107 132 -190 56 -82 119
-172 140 -200 121 -165 210 -295 210 -307 0 -22 -80 -239 -115 -313 -19 -38
-55 -124 -81 -190 -25 -66 -67 -176 -94 -245 -26 -69 -62 -157 -79 -197 -17
-40 -31 -79 -31 -87 0 -8 -9 -30 -19 -48 -19 -31 -111 -237 -168 -373 -14 -33
-43 -98 -65 -145 l-40 -85 -22 29 c-141 192 -467 615 -564 731 -9 11 -53 65
-96 120 -44 55 -92 114 -107 130 -50 55 -104 120 -139 165 -34 45 -155 185
-305 352 -44 49 -104 117 -134 151 -29 34 -97 109 -150 167 -53 58 -119 130
-146 160 -61 68 -192 205 -500 524 -375 387 -406 418 -651 656 -290 282 -778
744 -920 870 -40 36 -125 112 -190 170 -65 58 -150 135 -189 171 -38 36 -106
96 -150 133 -44 38 -103 89 -131 115 -27 25 -61 55 -75 66 -13 11 -87 74 -163
140 -77 66 -176 151 -220 188 -45 38 -92 79 -106 91 -75 65 -276 234 -299 250
-14 11 -47 38 -72 60 -65 57 -167 142 -281 233 -170 137 -267 216 -380 308
-61 50 -134 108 -163 130 -108 82 -132 101 -211 165 -107 86 -271 214 -311
242 -18 13 -67 50 -109 83 -42 33 -104 80 -137 103 -34 24 -100 74 -147 111
-47 36 -105 81 -130 99 -25 18 -147 108 -273 200 -293 215 -429 313 -602 434
-77 54 -180 128 -230 163 -49 36 -112 79 -140 96 -27 17 -84 55 -125 84 -64
46 -324 224 -545 372 -118 80 -502 331 -605 397 -58 36 -161 102 -228 146 -68
44 -126 80 -128 80 -3 0 -35 20 -72 44 -145 94 -221 141 -327 204 -60 36 -144
86 -185 112 -88 56 -301 183 -380 227 -30 17 -91 53 -135 80 -81 50 -158 94
-250 143 -55 29 -109 59 -230 130 -44 26 -134 76 -200 110 -130 68 -169 89
-315 170 -52 29 -133 72 -180 95 -47 23 -204 102 -350 176 -146 74 -362 181
-480 238 -118 57 -237 115 -265 129 -27 13 -70 32 -95 42 -25 10 -117 53 -205
95 -164 79 -207 98 -285 129 -25 10 -65 29 -90 41 -25 13 -56 26 -70 30 -14 4
-63 26 -110 48 -122 57 -292 130 -470 201 -85 35 -202 83 -260 109 -137 60
-267 113 -360 146 -41 15 -93 35 -115 45 -22 9 -69 28 -105 42 -36 14 -83 34
-105 44 -94 43 -310 125 -450 171 -49 17 -103 37 -118 45 -29 16 -180 73 -392
149 -66 23 -147 53 -180 65 -33 12 -73 25 -90 30 -16 5 -55 18 -85 30 -126 49
-255 95 -552 194 -172 58 -365 123 -428 144 -63 22 -149 50 -190 62 -41 13
-88 29 -105 36 -16 7 -43 15 -60 19 -16 4 -41 10 -55 15 -14 5 -52 16 -85 26
-33 9 -112 34 -175 55 -192 63 -310 100 -415 129 -55 15 -147 41 -205 58 -58
17 -134 39 -170 48 -36 10 -97 28 -137 41 -39 12 -131 39 -205 59 -73 20 -146
40 -163 44 -100 28 -221 59 -290 75 -44 10 -87 22 -95 26 -9 4 -49 15 -90 24
-136 31 -184 42 -300 75 -63 18 -153 41 -200 51 -47 10 -116 25 -155 34 -38 9
-155 34 -260 56 -104 21 -230 48 -280 59 -161 37 -219 49 -275 59 -30 6 -120
24 -200 40 -80 17 -188 38 -240 46 -171 26 -274 43 -355 58 -44 9 -118 21
-165 27 -47 7 -125 18 -174 26 -49 8 -104 14 -121 14 -18 0 -45 4 -61 10 -16
5 -74 17 -129 25 -202 29 -384 54 -550 74 -93 12 -195 26 -225 31 -67 11 -351
42 -500 55 -36 3 -96 10 -135 15 -88 12 -219 26 -360 40 -60 6 -144 15 -185
21 -41 5 -124 14 -185 19 -60 5 -195 21 -300 34 -104 14 -282 34 -395 45 -340
35 -491 51 -570 61 -79 10 -190 22 -380 40 -63 6 -164 15 -225 21 -60 6 -155
12 -210 15 -55 3 -170 11 -255 19 -85 8 -209 20 -275 25 -836 72 -848 73 -852
85 -7 22 490 496 806 770 19 17 57 50 85 75 295 262 840 689 1306 1022 308
220 1007 685 1145 762 17 9 109 64 205 123 254 154 610 357 880 501 266 142
777 402 860 437 30 13 114 51 185 85 168 80 370 170 570 255 88 37 194 82 235
100 108 47 320 132 425 170 50 18 158 59 240 90 184 69 434 158 535 190 41 13
156 50 255 83 162 54 362 117 455 142 19 5 71 21 115 34 231 70 783 214 985
257 30 7 87 20 125 30 39 9 138 31 220 49 83 17 200 42 260 55 109 24 288 58
395 75 30 5 80 14 110 20 95 18 158 28 400 64 129 19 296 44 370 55 74 11 200
27 280 36 80 9 201 22 270 30 118 14 183 21 425 45 207 21 943 59 1220 64 318
5 1244 -4 1425 -14z m4660 -778 c69 -23 163 -49 220 -62 19 -5 87 -26 150 -48
63 -22 149 -50 190 -62 41 -12 89 -28 105 -35 17 -7 64 -23 105 -35 41 -12
127 -40 190 -62 63 -22 148 -51 188 -64 41 -13 86 -31 101 -38 15 -8 70 -29
122 -46 52 -17 103 -35 114 -40 53 -24 106 -44 170 -65 39 -13 88 -31 110 -40
22 -9 54 -23 70 -30 17 -7 50 -20 75 -30 25 -10 70 -29 100 -43 30 -13 84 -35
120 -49 124 -48 286 -116 388 -165 57 -26 105 -48 108 -48 2 0 52 -22 110 -50
58 -27 110 -50 115 -50 5 0 17 -4 27 -10 9 -5 109 -54 222 -109 363 -175 492
-239 665 -331 94 -50 217 -115 275 -145 58 -31 143 -78 190 -106 47 -28 123
-71 170 -96 47 -25 90 -49 95 -53 6 -4 42 -24 80 -45 39 -21 77 -44 85 -51 16
-13 135 -85 240 -144 52 -29 255 -156 365 -228 11 -7 40 -25 64 -40 61 -38
553 -366 604 -403 23 -16 69 -49 102 -73 217 -155 302 -216 349 -251 29 -22
91 -67 137 -100 46 -33 91 -66 99 -75 9 -8 69 -55 134 -105 272 -207 488 -412
707 -674 30 -36 75 -90 101 -120 55 -65 101 -122 192 -241 36 -47 69 -89 73
-95 5 -5 51 -71 103 -145 52 -74 98 -136 102 -138 5 -2 8 -8 8 -13 0 -6 5 -15
10 -22 6 -7 55 -78 108 -158 295 -444 442 -661 548 -809 64 -91 129 -181 143
-201 14 -20 74 -103 133 -185 263 -366 309 -430 433 -609 127 -183 334 -498
369 -560 9 -16 55 -93 103 -170 47 -77 100 -165 118 -195 17 -30 63 -109 102
-175 129 -221 323 -570 455 -820 67 -128 338 -671 338 -678 0 -3 25 -57 55
-122 30 -64 55 -118 55 -120 0 -2 14 -33 30 -69 17 -36 44 -96 60 -132 17 -36
30 -67 30 -70 0 -2 9 -24 20 -49 11 -25 29 -66 41 -91 11 -26 29 -69 40 -97
11 -28 28 -69 38 -91 11 -23 40 -93 66 -156 26 -63 53 -128 60 -145 11 -25 43
-106 75 -190 4 -11 23 -60 43 -110 19 -49 40 -106 47 -125 7 -19 18 -49 26
-66 7 -17 27 -71 44 -120 17 -49 35 -98 40 -109 9 -21 32 -86 77 -215 24 -72
25 -78 13 -150 -13 -77 -15 -93 -44 -290 -10 -63 -24 -140 -31 -170 -8 -30
-23 -98 -34 -150 -11 -52 -36 -169 -56 -260 -20 -91 -52 -239 -71 -330 -19
-91 -43 -201 -54 -245 -40 -168 -52 -219 -60 -264 -4 -25 -22 -95 -40 -156
-17 -60 -38 -137 -45 -170 -7 -33 -26 -112 -43 -175 -30 -111 -55 -210 -86
-335 -8 -33 -22 -87 -31 -120 -9 -33 -27 -102 -40 -152 -14 -51 -36 -130 -49
-175 -14 -46 -39 -135 -55 -198 -16 -63 -39 -149 -51 -190 -12 -41 -25 -91
-30 -110 -21 -97 -45 -185 -75 -285 -19 -60 -39 -130 -45 -155 -6 -25 -24 -85
-40 -135 -16 -49 -43 -144 -60 -210 -17 -66 -40 -145 -49 -175 -10 -30 -28
-93 -40 -140 -12 -47 -27 -98 -32 -115 -6 -16 -26 -79 -46 -140 -19 -60 -45
-141 -57 -179 -12 -39 -27 -71 -32 -73 -9 -3 -101 117 -262 346 -48 68 -100
142 -116 165 -73 103 -274 399 -325 479 -31 49 -98 152 -149 230 -52 78 -105
165 -119 192 -14 28 -36 64 -49 82 -13 17 -24 34 -24 37 0 3 -25 47 -55 98
-31 51 -61 102 -68 113 -6 11 -24 40 -38 65 -15 25 -47 83 -72 130 -67 127
-158 294 -167 305 -4 6 -35 64 -67 130 -186 373 -225 451 -232 460 -4 6 -14
26 -21 45 -7 19 -25 60 -38 90 -94 209 -127 283 -153 345 -17 39 -42 94 -56
124 -14 30 -38 90 -53 132 -16 43 -35 92 -44 111 -8 18 -31 76 -51 128 -20 52
-51 129 -70 170 -18 41 -50 120 -71 175 -21 55 -41 104 -46 110 -4 5 -8 15 -8
23 0 15 -95 259 -175 452 -24 58 -63 155 -86 215 -23 61 -68 173 -101 250 -32
77 -58 143 -58 147 0 3 -18 44 -39 90 -22 47 -49 114 -61 149 -12 35 -30 82
-40 104 -10 22 -37 87 -59 145 -22 58 -63 161 -92 230 -28 69 -73 186 -99 260
-27 74 -72 198 -100 275 -56 152 -145 405 -214 610 -91 269 -119 347 -147 410
-5 11 -27 74 -48 140 -58 177 -218 617 -267 735 -4 8 -21 56 -39 105 -53 148
-114 306 -145 375 -16 36 -50 119 -76 185 -63 162 -184 453 -226 545 -19 41
-41 93 -48 115 -7 22 -16 45 -20 50 -4 6 -26 57 -50 115 -23 57 -59 141 -80
185 -58 122 -123 267 -180 400 -29 66 -90 199 -137 295 -47 96 -102 213 -123
260 -21 47 -67 141 -103 210 -35 69 -103 201 -151 295 -48 93 -91 174 -95 180
-5 5 -24 39 -43 75 -66 121 -206 365 -257 445 -28 44 -70 110 -93 147 -24 37
-55 86 -70 110 -108 170 -305 450 -449 638 -61 80 -123 161 -137 180 -15 20
-45 57 -67 84 -87 104 -121 144 -139 167 -253 314 -856 938 -1251 1295 -164
148 -323 283 -505 429 -21 17 -71 57 -111 90 -41 34 -105 83 -144 110 -38 27
-72 52 -75 55 -15 17 -148 114 -230 169 -52 35 -122 84 -155 108 -89 64 -147
103 -275 183 -63 40 -147 94 -187 121 -39 27 -74 49 -77 49 -3 0 -45 25 -95
55 -50 30 -93 55 -95 55 -3 0 -40 21 -83 46 -159 94 -190 112 -263 152 -101
54 -305 161 -357 186 -23 12 -42 24 -43 27 0 9 78 -6 150 -29z m-19809 -5385
c36 -8 141 -27 235 -41 93 -14 205 -33 249 -40 44 -8 114 -20 155 -26 41 -7
98 -16 125 -20 28 -5 104 -16 170 -25 66 -10 127 -21 135 -25 9 -5 45 -11 80
-15 87 -9 535 -71 685 -95 123 -20 215 -33 480 -70 83 -11 218 -32 300 -45 83
-13 204 -31 270 -39 120 -15 316 -42 515 -71 58 -8 220 -29 360 -46 140 -16
264 -32 275 -34 11 -3 61 -10 110 -16 50 -5 122 -14 160 -19 39 -5 153 -18
255 -30 102 -11 210 -25 240 -30 30 -5 213 -30 405 -55 193 -25 427 -56 520
-70 94 -14 235 -34 315 -45 80 -11 183 -27 230 -36 47 -8 162 -28 257 -44 165
-28 536 -98 748 -141 434 -88 543 -112 1010 -226 347 -84 667 -166 920 -236
88 -25 228 -63 310 -86 83 -22 182 -50 220 -62 39 -11 122 -36 185 -54 63 -18
153 -45 200 -60 47 -15 121 -38 165 -50 254 -72 1063 -335 1525 -495 96 -34
216 -75 265 -92 85 -29 185 -65 493 -179 439 -163 441 -163 877 -336 237 -93
335 -133 570 -231 66 -27 188 -78 270 -112 83 -33 193 -81 245 -104 52 -24
160 -72 240 -106 80 -34 168 -72 195 -85 205 -94 355 -164 443 -206 57 -27
105 -49 107 -49 20 0 945 -463 1190 -595 33 -18 125 -67 205 -110 230 -123
238 -128 472 -261 426 -242 943 -554 1328 -800 36 -23 90 -58 120 -77 315
-199 1106 -727 1406 -938 75 -52 273 -192 414 -291 140 -98 301 -214 434 -311
191 -140 990 -741 1101 -828 50 -38 137 -107 194 -152 57 -45 128 -100 156
-122 48 -37 207 -165 426 -342 271 -220 853 -707 1094 -918 388 -337 812 -714
940 -834 39 -36 156 -145 260 -241 767 -709 1632 -1591 2280 -2325 347 -393
683 -807 1039 -1280 245 -325 336 -455 336 -479 0 -13 -84 -181 -150 -301 -15
-27 -77 -140 -137 -250 -146 -267 -212 -378 -228 -388 -7 -4 -30 -37 -51 -75
-20 -37 -67 -116 -103 -175 -135 -222 -184 -303 -205 -342 -12 -22 -41 -68
-64 -102 -23 -34 -42 -64 -42 -67 0 -3 -22 -38 -48 -78 -81 -121 -138 -211
-153 -240 -8 -15 -59 -94 -113 -175 -55 -81 -131 -195 -170 -253 -38 -58 -92
-136 -119 -175 -26 -38 -60 -89 -75 -113 -15 -24 -60 -89 -99 -145 -40 -56
-108 -154 -150 -217 -43 -63 -96 -138 -118 -167 -22 -28 -67 -89 -99 -135 -77
-107 -113 -157 -222 -302 -49 -65 -118 -158 -153 -207 -35 -49 -69 -89 -75
-89 -6 0 -23 19 -38 43 -25 39 -63 91 -248 338 -36 47 -105 133 -155 189 -49
57 -126 144 -169 194 -179 205 -698 699 -895 851 -36 28 -87 70 -115 95 -53
48 -79 68 -201 160 -41 30 -109 82 -152 116 -79 62 -124 94 -268 193 -44 30
-120 83 -170 117 -49 35 -128 86 -175 115 -47 28 -114 70 -150 94 -76 49 -206
126 -305 180 -38 21 -115 63 -170 93 -55 30 -104 58 -110 62 -5 4 -89 45 -185
90 -96 45 -212 100 -258 121 -45 21 -85 39 -88 39 -3 0 -31 12 -62 26 -86 39
-106 47 -257 102 -291 107 -442 159 -490 172 -27 7 -81 23 -120 36 -68 22
-445 117 -535 134 -25 5 -88 18 -140 30 -196 43 -391 80 -496 94 -60 8 -203
28 -319 44 -115 17 -262 35 -325 41 -124 11 -414 37 -520 46 -36 3 -121 10
-190 15 -123 11 -257 17 -830 40 -343 14 -2009 8 -2355 -9 -126 -6 -345 -16
-485 -21 -140 -6 -329 -15 -420 -20 -91 -6 -284 -17 -430 -25 -583 -33 -992
-65 -1215 -95 -38 -5 -135 -14 -215 -21 -131 -10 -336 -34 -510 -58 -276 -39
-384 -54 -445 -61 -38 -4 -144 -20 -235 -35 -169 -27 -222 -35 -370 -54 -47
-6 -148 -23 -225 -36 -77 -14 -198 -35 -270 -46 -148 -22 -258 -41 -395 -69
-91 -18 -218 -39 -360 -61 -36 -5 -146 -23 -245 -40 -99 -17 -216 -35 -260
-40 -78 -9 -179 -25 -340 -54 -124 -22 -141 -24 -290 -45 -77 -11 -198 -28
-270 -40 -176 -27 -389 -56 -510 -70 -55 -6 -129 -15 -165 -20 -36 -5 -103
-14 -150 -20 -47 -6 -125 -17 -175 -25 -49 -8 -124 -17 -165 -20 -41 -4 -160
-18 -265 -31 -104 -14 -210 -28 -235 -30 -25 -3 -67 -9 -95 -14 -27 -5 -97
-14 -155 -20 -58 -6 -134 -14 -170 -20 -36 -5 -108 -14 -160 -20 -52 -6 -126
-15 -165 -20 -137 -18 -322 -39 -440 -50 -199 -18 -322 -32 -595 -65 -119 -14
-504 -48 -910 -80 -102 -8 -201 -17 -220 -20 -69 -11 -701 -36 -1035 -42 -207
-4 -435 -1 -585 6 -498 24 -617 31 -705 41 -49 6 -218 24 -375 41 -322 34
-349 37 -550 73 -80 14 -174 30 -210 35 -88 14 -163 27 -240 45 -342 77 -343
77 -524 130 -88 25 -168 46 -178 46 -11 0 -31 6 -46 13 -15 8 -79 29 -142 47
-113 32 -444 150 -650 231 -58 22 -139 53 -180 68 -41 15 -106 42 -144 60 -37
18 -113 53 -167 77 -54 24 -144 64 -199 89 -56 24 -192 90 -303 146 -388 196
-469 239 -584 310 -34 22 -65 39 -68 39 -4 0 -44 22 -91 50 -47 28 -87 50 -89
50 -4 0 -198 119 -285 175 -19 12 -71 44 -115 71 -44 26 -102 64 -130 83 -27
19 -106 73 -175 119 -307 205 -743 539 -972 744 -48 43 -92 78 -98 78 -38 0
-468 417 -742 720 -72 80 -136 150 -142 155 -20 18 -153 180 -169 206 -15 22
-16 40 -7 145 22 282 73 790 95 949 25 180 33 232 54 395 12 85 28 191 36 235
8 44 33 186 56 315 23 129 45 253 49 275 4 22 22 112 39 200 32 170 39 200 70
335 11 47 36 155 56 240 19 85 43 182 51 215 9 33 31 121 49 195 84 346 221
819 369 1275 54 166 162 477 180 520 8 17 23 62 36 100 22 72 40 117 181 475
45 113 97 246 116 295 19 50 41 102 49 116 8 15 34 74 58 130 77 179 126 292
158 359 16 36 37 83 46 105 8 22 18 45 23 50 4 6 61 123 126 260 104 216 347
694 441 865 149 274 341 611 399 702 12 21 23 39 23 42 0 12 314 513 499 797
53 80 101 153 106 161 32 50 330 474 412 588 191 263 532 707 699 909 227 276
326 395 389 466 38 44 99 114 135 155 36 41 148 167 249 279 l185 203 55 -5
c31 -3 85 -12 122 -20z m32182 -8169 c5 -31 15 -78 53 -238 33 -141 88 -401
100 -480 2 -14 8 -45 13 -70 9 -45 22 -114 41 -230 19 -114 32 -185 42 -235 5
-27 14 -80 19 -117 5 -38 14 -99 19 -138 6 -38 14 -100 19 -137 5 -38 21 -147
36 -243 14 -96 28 -202 31 -235 3 -33 10 -76 15 -95 5 -19 9 -50 9 -69 0 -19
4 -60 10 -90 20 -116 86 -659 119 -983 6 -51 19 -172 30 -268 12 -96 21 -195
21 -220 0 -25 4 -79 10 -120 11 -89 27 -298 36 -465 3 -66 7 -122 9 -125 1 -3
6 -99 9 -215 4 -115 9 -222 12 -238 4 -19 1 -29 -11 -33 -15 -6 -86 11 -110
26 -5 3 -44 19 -85 34 -41 16 -79 33 -84 37 -6 5 -17 9 -25 9 -24 0 -769 374
-926 465 -123 72 -455 298 -455 310 0 13 7 32 31 90 7 17 58 176 90 280 5 17
20 66 34 110 25 84 72 255 86 315 4 19 15 64 24 100 9 36 19 76 21 90 3 14 9
39 13 55 5 17 14 57 21 90 6 33 16 76 20 95 5 19 21 89 35 155 31 143 62 285
75 340 12 51 58 264 72 330 5 28 14 66 18 85 5 19 13 55 19 80 14 63 41 179
51 220 5 19 18 76 29 125 11 50 30 131 41 180 12 50 28 119 36 155 8 36 19 81
24 100 9 34 24 98 73 310 14 58 31 130 38 160 7 30 14 57 14 60 2 10 47 207
55 240 14 55 27 115 56 250 38 180 56 219 67 148z m-1299 -5015 c100 -93 269
-239 366 -318 34 -27 83 -68 110 -90 103 -86 398 -292 543 -378 117 -71 279
-147 437 -206 148 -55 235 -75 415 -96 33 -4 63 -12 67 -18 7 -12 2 -185 -7
-258 -3 -19 -7 -73 -10 -120 -5 -84 -19 -234 -31 -339 -3 -30 -10 -95 -14
-145 -5 -49 -16 -144 -25 -210 -8 -66 -18 -145 -21 -175 -3 -30 -8 -66 -11
-80 -3 -14 -10 -59 -14 -100 -16 -146 -16 -140 -60 -450 -12 -80 -25 -174 -30
-210 -12 -102 -27 -209 -38 -280 -6 -36 -17 -110 -25 -165 -9 -55 -18 -116
-21 -135 -6 -43 -23 -152 -30 -200 -3 -19 -10 -60 -15 -90 -15 -97 -29 -183
-46 -280 -18 -105 -27 -163 -43 -260 -14 -90 -26 -159 -50 -275 -12 -55 -21
-111 -22 -125 0 -22 -3 -20 -19 15 -10 22 -43 119 -74 215 -50 152 -88 263
-116 335 -5 11 -18 47 -30 80 -25 66 -36 93 -70 175 -12 30 -26 64 -30 75 -4
11 -24 55 -44 98 -20 43 -36 80 -36 82 0 16 -160 342 -242 495 -80 147 -91
167 -169 300 -98 165 -86 146 -189 304 -47 72 -87 136 -90 143 -13 29 -224
320 -445 612 -150 200 -418 487 -537 576 -35 26 -66 52 -70 59 -3 6 28 82 70
168 43 86 92 190 111 230 38 82 67 143 141 300 27 59 50 109 50 112 0 3 14 36
31 73 32 68 50 109 87 193 11 25 29 65 40 90 11 25 32 74 47 110 15 36 38 89
51 118 13 29 24 56 24 60 0 9 21 32 29 32 2 0 27 -21 55 -47z m-36463 -190
c35 -42 75 -90 88 -107 100 -126 494 -530 694 -712 233 -212 470 -408 722
-596 443 -330 1076 -734 1465 -933 41 -21 86 -46 100 -56 35 -23 390 -200 611
-305 508 -238 1030 -439 1564 -600 109 -33 432 -119 505 -134 25 -5 115 -25
200 -45 139 -32 402 -81 640 -120 403 -65 1033 -117 1641 -135 477 -14 1139 1
1604 36 39 2 129 9 200 14 396 28 769 63 1155 109 91 11 248 30 350 41 102 11
264 32 360 45 96 13 238 31 315 40 77 8 176 20 220 26 44 5 116 14 160 20 44
6 109 14 145 19 78 11 190 25 365 45 162 19 243 29 420 55 77 11 232 31 345
45 113 14 250 33 305 41 55 9 129 20 165 24 36 5 119 16 185 25 66 9 154 20
195 26 41 6 104 14 140 19 36 5 110 16 165 25 55 8 163 25 240 36 77 11 248
37 380 59 132 21 301 48 375 60 74 11 153 25 175 30 22 5 117 21 210 35 94 14
195 30 225 35 30 5 87 14 125 21 39 6 102 17 140 25 39 7 135 23 215 34 80 12
222 35 315 50 94 16 242 38 330 50 88 11 194 26 235 31 41 6 104 14 140 19
217 26 430 50 530 60 63 6 158 15 210 21 484 49 650 63 1090 89 91 5 275 17
410 25 266 17 512 28 970 45 703 25 988 30 1622 30 888 0 1574 -25 2033 -74
77 -9 187 -20 245 -26 167 -17 408 -49 490 -64 41 -8 107 -19 145 -25 544 -87
1048 -220 1505 -399 305 -119 650 -283 930 -441 39 -23 73 -41 76 -41 22 0
535 -332 745 -482 814 -584 1477 -1227 1934 -1878 97 -137 245 -379 245 -400
0 -7 -26 -45 -57 -84 -32 -39 -67 -82 -78 -95 -11 -14 -47 -57 -80 -95 -33
-39 -96 -114 -140 -166 -893 -1067 -2267 -2453 -3165 -3190 -300 -246 -708
-560 -931 -716 -31 -21 -94 -66 -140 -98 -128 -90 -572 -385 -679 -451 -52
-32 -124 -77 -160 -100 -36 -24 -117 -73 -180 -110 -63 -38 -131 -78 -150 -90
-19 -13 -84 -51 -145 -86 -60 -34 -121 -70 -135 -80 -14 -9 -66 -39 -115 -66
-50 -27 -164 -91 -255 -143 -181 -102 -263 -147 -695 -377 -366 -196 -440
-234 -880 -458 -548 -278 -1061 -533 -1290 -640 -77 -36 -228 -108 -438 -209
-77 -36 -140 -66 -142 -66 -4 0 -260 -118 -380 -175 -38 -18 -131 -59 -205
-90 -74 -31 -173 -74 -220 -95 -132 -59 -318 -136 -395 -165 -38 -15 -92 -37
-120 -49 -27 -13 -61 -27 -75 -31 -14 -4 -72 -27 -130 -50 -168 -68 -482 -184
-745 -275 -210 -72 -217 -75 -395 -130 -91 -28 -228 -71 -305 -95 -419 -132
-1063 -297 -1495 -386 -30 -6 -82 -17 -115 -25 -56 -13 -190 -37 -470 -85 -66
-11 -139 -24 -163 -30 -23 -5 -53 -7 -66 -3 -13 3 -75 -1 -138 -10 -62 -9
-165 -23 -228 -32 -63 -8 -144 -20 -180 -25 -127 -17 -307 -38 -435 -49 -71
-6 -161 -16 -200 -22 -38 -5 -122 -13 -185 -18 -63 -5 -164 -14 -225 -20 -125
-12 -152 -14 -470 -35 -126 -8 -291 -19 -365 -25 -74 -5 -207 -14 -295 -20
-88 -6 -209 -15 -270 -20 -60 -6 -272 -17 -470 -25 -198 -8 -495 -20 -660 -27
-421 -18 -1979 -17 -2225 0 -199 14 -538 47 -635 61 -100 15 -226 31 -310 41
-289 33 -360 42 -440 55 -49 8 -106 14 -125 15 -19 0 -64 6 -100 14 -36 8
-121 22 -190 31 -121 16 -606 109 -723 140 -32 8 -68 15 -81 15 -61 0 -489
116 -661 179 -50 19 -393 121 -474 141 -35 9 -67 34 -170 132 -117 113 -362
363 -611 623 -343 359 -834 934 -1200 1404 -189 243 -473 629 -610 830 -25 36
-67 98 -95 136 -47 67 -211 314 -320 480 -67 102 -266 423 -335 540 -30 50
-79 133 -110 185 -236 397 -570 1023 -743 1390 -25 52 -77 162 -116 243 -39
81 -71 150 -71 152 0 1 -18 41 -39 87 -22 45 -51 110 -64 143 -14 33 -55 128
-91 210 -37 83 -118 281 -182 440 -161 404 -161 404 -214 555 -26 74 -77 218
-113 320 -101 287 -195 579 -287 895 -21 72 -47 159 -58 195 -67 215 -283
1091 -332 1347 -12 59 -36 185 -55 278 -19 94 -46 240 -60 325 -15 85 -39 227
-55 315 -15 88 -33 201 -39 250 -7 50 -16 117 -21 150 -9 64 -20 141 -45 325
-14 109 -51 477 -75 750 -6 69 -15 170 -20 225 -30 319 -50 898 -50 1457 0
413 2 498 14 498 7 0 42 -34 77 -77z m35182 -2373 c9 -11 17 -24 17 -29 0 -5
22 -42 49 -83 128 -191 248 -380 308 -482 36 -61 81 -133 100 -160 19 -27 46
-69 60 -95 14 -25 42 -75 63 -111 20 -36 57 -100 81 -142 24 -43 62 -109 84
-148 22 -38 43 -70 48 -70 4 0 7 -6 7 -14 0 -8 47 -112 105 -231 58 -119 105
-218 105 -220 0 -2 18 -41 39 -87 39 -83 90 -211 161 -408 21 -58 45 -123 55
-145 22 -53 100 -281 126 -370 27 -94 112 -371 162 -525 22 -69 48 -156 58
-195 27 -107 47 -177 57 -205 5 -14 22 -74 37 -135 14 -60 40 -153 56 -205 16
-52 42 -147 59 -210 38 -141 45 -167 59 -205 5 -16 20 -75 32 -130 11 -55 32
-138 45 -185 30 -105 30 -119 -2 -205 -14 -39 -38 -106 -54 -150 -49 -137 -53
-148 -87 -240 -19 -49 -38 -99 -43 -110 -18 -43 -80 -210 -80 -218 0 -4 -9
-26 -19 -50 -10 -23 -32 -76 -47 -117 -15 -41 -31 -79 -36 -85 -4 -5 -8 -15
-8 -22 0 -7 -8 -32 -19 -56 -10 -23 -35 -85 -56 -137 -21 -52 -43 -108 -50
-125 -7 -16 -30 -70 -50 -120 -21 -49 -48 -114 -61 -143 -13 -29 -24 -54 -24
-57 0 -2 -13 -32 -29 -67 -57 -125 -81 -179 -81 -182 0 -16 -287 -601 -388
-789 -35 -67 -88 -167 -117 -222 -44 -84 -256 -462 -329 -586 -11 -20 -56 -96
-99 -170 -244 -418 -579 -943 -879 -1377 -68 -97 -139 -200 -158 -229 -61 -89
-311 -434 -388 -533 -103 -133 -218 -263 -397 -450 -56 -58 -153 -159 -215
-225 -140 -147 -757 -764 -860 -860 -41 -38 -118 -110 -170 -160 -52 -49 -146
-137 -209 -195 -63 -58 -119 -110 -125 -115 -6 -6 -51 -46 -101 -90 -49 -44
-106 -93 -125 -111 -19 -17 -57 -51 -85 -76 -27 -24 -66 -58 -85 -75 -19 -17
-73 -63 -119 -104 -46 -41 -98 -85 -115 -99 -17 -13 -53 -46 -81 -71 -27 -26
-66 -60 -86 -76 -19 -15 -61 -50 -93 -78 -32 -27 -77 -66 -100 -86 -77 -66
-317 -264 -347 -285 -16 -12 -44 -35 -62 -51 -18 -16 -40 -34 -49 -39 -8 -5
-31 -22 -49 -37 -46 -38 -277 -211 -364 -272 -38 -27 -72 -52 -75 -56 -3 -4
-19 -15 -36 -25 -17 -11 -50 -32 -74 -49 -23 -16 -50 -34 -59 -40 -47 -29
-116 -80 -119 -87 -2 -4 -8 -8 -14 -8 -5 0 -49 -26 -96 -59 -173 -117 -270
-180 -407 -266 -77 -48 -156 -98 -175 -110 -109 -70 -230 -145 -234 -145 -2 0
-40 -22 -83 -49 -43 -28 -100 -62 -128 -77 -27 -14 -56 -31 -63 -37 -7 -5 -32
-20 -55 -32 -23 -12 -71 -39 -107 -60 -181 -106 -525 -284 -730 -378 -158 -72
-217 -99 -235 -106 -11 -5 -54 -23 -95 -41 -102 -45 -128 -55 -177 -74 -23 -8
-61 -24 -85 -35 -129 -56 -178 -71 -178 -51 0 6 5 10 11 10 6 0 26 12 44 28
17 15 70 54 116 87 46 33 106 77 134 97 27 20 68 50 90 65 22 16 78 57 125 92
47 34 125 91 174 126 48 36 102 76 120 89 17 14 61 47 97 73 37 26 110 82 164
123 54 41 125 95 159 119 34 24 81 60 106 80 25 20 56 45 70 54 43 30 278 207
310 234 8 7 29 23 46 35 53 38 218 165 239 185 11 10 64 52 119 93 154 117
160 122 232 182 38 31 82 67 98 80 16 13 49 41 75 63 25 23 69 58 96 79 28 22
55 44 60 50 6 6 37 34 70 61 260 217 874 809 1111 1070 134 148 256 287 309
350 27 33 52 62 55 65 7 6 215 259 250 303 14 18 79 100 145 182 66 83 145
184 177 225 107 142 193 255 224 295 188 241 600 839 719 1043 6 9 26 44 46
77 20 33 51 87 69 120 34 62 55 98 91 163 30 50 199 389 199 396 0 4 9 28 21
54 36 79 45 101 78 185 5 12 14 38 21 57 7 19 16 44 20 55 12 29 55 162 70
215 7 25 16 54 20 65 5 11 13 40 20 65 6 25 16 61 21 80 10 34 21 82 34 145 3
17 10 46 15 65 20 77 54 287 69 420 28 248 33 368 28 620 -5 246 -8 312 -22
445 -3 28 -8 73 -11 100 -5 59 -22 178 -35 255 -6 30 -12 75 -15 100 -3 25 -8
52 -11 60 -2 8 -9 42 -15 75 -19 117 -25 151 -42 230 -26 120 -104 439 -131
530 -13 44 -40 141 -60 215 -21 74 -41 144 -46 155 -4 11 -18 54 -30 95 -32
110 -151 479 -169 525 -4 11 -18 54 -30 95 -12 41 -37 118 -55 170 -18 52 -40
118 -49 145 -36 120 -127 358 -165 434 -38 74 -40 68 75 223 163 218 204 274
284 388 40 58 85 121 100 140 29 38 162 239 169 255 2 5 12 17 21 27 9 10 23
31 31 46 8 15 16 29 19 32 3 3 25 37 49 75 25 39 57 90 73 115 15 25 33 52 38
60 28 42 144 229 159 254 9 16 21 36 26 45 6 9 34 57 63 106 61 104 58 99 136
224 54 87 82 131 202 316 21 33 43 69 50 80 6 11 44 72 84 135 95 150 297 487
378 630 10 19 57 100 102 180 46 80 97 170 113 200 16 30 38 69 47 85 19 33
61 109 110 200 18 33 36 65 40 70 4 6 24 44 46 85 46 90 64 120 73 120 4 0 14
-9 24 -20z m-3320 -5162 c24 -79 58 -204 76 -278 18 -74 38 -157 46 -185 7
-27 21 -97 30 -155 18 -109 39 -229 55 -315 34 -178 72 -560 92 -913 15 -289
-1 -594 -52 -977 -20 -145 -29 -195 -55 -300 -7 -27 -23 -99 -35 -160 -12 -60
-28 -126 -36 -145 -7 -19 -27 -82 -45 -140 -17 -58 -56 -162 -85 -233 -30 -70
-54 -129 -54 -132 0 -5 -46 -106 -107 -235 -20 -41 -71 -135 -115 -207 -43
-73 -81 -140 -85 -150 -4 -10 -10 -20 -13 -23 -4 -3 -33 -45 -64 -95 -32 -49
-77 -117 -101 -150 -24 -33 -60 -85 -81 -115 -21 -30 -44 -61 -51 -70 -7 -8
-30 -38 -50 -66 -21 -28 -74 -96 -118 -150 -44 -54 -94 -118 -112 -141 -18
-23 -40 -51 -50 -61 -39 -41 -92 -101 -163 -187 -41 -49 -97 -115 -126 -145
-28 -30 -93 -102 -144 -160 -310 -351 -889 -950 -1155 -1195 -54 -49 -110
-101 -125 -115 -96 -90 -164 -151 -215 -195 -33 -27 -82 -71 -110 -96 -52 -49
-110 -99 -159 -140 -58 -47 -141 -121 -156 -138 -8 -10 -49 -43 -90 -75 -41
-31 -109 -87 -150 -124 -41 -38 -113 -99 -160 -137 -47 -38 -119 -99 -160
-135 -41 -36 -123 -106 -183 -155 -59 -50 -134 -112 -166 -140 -141 -119 -360
-305 -430 -363 -42 -35 -94 -78 -116 -96 -57 -48 -276 -228 -386 -318 -52 -42
-103 -85 -114 -95 -11 -10 -36 -28 -55 -40 -19 -12 -46 -32 -60 -45 -14 -13
-37 -31 -52 -41 -15 -9 -49 -36 -76 -60 -27 -23 -95 -75 -152 -116 -56 -41
-107 -80 -114 -86 -6 -6 -33 -26 -60 -44 -60 -42 -169 -122 -218 -161 -20 -17
-40 -30 -43 -30 -7 0 -182 -119 -239 -164 -22 -17 -55 -39 -75 -49 -20 -10
-52 -31 -71 -46 -19 -15 -66 -46 -105 -69 -38 -24 -97 -60 -130 -82 -33 -22
-103 -64 -155 -95 -52 -30 -102 -60 -110 -65 -51 -32 -214 -127 -260 -152 -30
-17 -71 -40 -90 -52 -19 -11 -60 -33 -90 -49 -108 -54 -226 -118 -270 -145
-25 -15 -70 -38 -100 -51 -30 -12 -71 -33 -90 -45 -19 -12 -57 -32 -85 -43
-27 -12 -117 -56 -200 -98 -82 -42 -184 -90 -225 -107 -41 -16 -91 -38 -110
-48 -19 -10 -60 -28 -90 -40 -30 -12 -98 -41 -150 -65 -113 -52 -282 -120
-365 -147 -32 -11 -77 -28 -100 -38 -22 -10 -91 -37 -153 -59 -61 -22 -136
-51 -165 -64 -28 -13 -72 -30 -97 -37 -25 -7 -83 -28 -130 -45 -47 -18 -128
-46 -180 -63 -177 -58 -455 -152 -475 -161 -11 -5 -42 -15 -70 -21 -27 -7 -95
-26 -150 -42 -55 -16 -136 -38 -180 -49 -83 -21 -154 -41 -315 -89 -169 -50
-422 -118 -560 -150 -74 -17 -151 -35 -170 -40 -19 -4 -106 -22 -194 -39 -87
-18 -200 -44 -250 -57 -50 -14 -116 -29 -146 -34 -64 -10 -391 -66 -465 -80
-27 -5 -88 -12 -135 -15 -47 -3 -134 -12 -195 -19 -300 -39 -305 -39 -550 -16
-127 12 -297 28 -380 35 -82 8 -262 30 -400 50 -137 19 -286 40 -330 45 -44 5
-111 16 -150 24 -93 20 -255 49 -445 81 -85 14 -182 32 -215 40 -33 8 -112 24
-175 35 -137 25 -184 34 -270 54 -36 8 -105 24 -155 36 -175 41 -621 152 -680
169 -33 10 -114 31 -180 46 -66 15 -127 30 -135 34 -8 5 -80 27 -160 51 -80
23 -190 57 -245 75 -55 18 -131 40 -170 50 -38 9 -79 21 -90 26 -30 13 -237
79 -249 79 -6 0 -45 14 -86 31 -41 17 -113 44 -160 60 -255 84 -476 165 -695
254 -71 29 -148 59 -170 66 -22 7 -45 16 -50 20 -6 4 -55 24 -110 44 -55 21
-122 48 -150 60 -96 45 -280 126 -345 152 -36 15 -106 46 -157 70 -50 24 -94
43 -97 43 -4 0 -88 40 -189 89 -342 166 -416 201 -421 201 -4 0 -23 11 -44 23
-20 13 -129 71 -242 129 -113 58 -241 126 -285 150 -119 67 -282 157 -347 192
-172 93 -683 405 -970 594 -78 51 -160 101 -183 111 -54 24 -125 72 -524 351
-212 148 -613 450 -869 655 -319 255 -371 299 -361 310 3 2 41 -5 84 -16 44
-11 159 -35 255 -54 96 -19 211 -42 255 -51 44 -8 121 -26 170 -39 50 -13 164
-33 255 -45 91 -11 230 -30 310 -40 231 -31 297 -39 425 -51 66 -6 156 -15
200 -20 286 -32 415 -41 975 -63 945 -36 1576 -44 2145 -25 171 5 463 12 650
14 187 3 354 7 370 9 17 3 84 7 150 11 66 3 145 8 175 10 30 3 107 7 170 10
142 7 423 24 510 30 115 9 708 25 945 25 127 1 289 5 360 11 72 5 173 12 225
15 52 3 122 9 155 14 33 5 94 12 135 15 41 3 102 10 135 15 33 5 98 14 145 20
118 15 329 48 425 66 210 38 405 80 665 143 163 39 276 66 488 117 59 14 118
29 132 33 14 5 52 14 85 21 33 6 76 15 95 20 52 13 244 57 330 74 317 66 632
151 1070 291 63 20 138 43 165 52 28 8 68 21 90 28 22 8 114 37 205 66 139 43
706 230 820 270 138 48 284 100 305 109 11 5 65 25 120 45 143 53 305 115 340
130 17 7 98 38 180 70 223 84 811 322 938 379 28 13 77 34 107 46 65 26 90 37
193 84 42 20 80 36 82 36 6 0 57 23 175 77 125 58 270 123 274 123 3 0 44 18
93 41 48 22 106 49 128 59 307 139 811 383 1030 498 61 32 164 87 230 122 66
34 125 66 130 70 6 5 39 24 75 43 70 37 234 129 395 222 55 32 120 69 145 83
25 14 80 47 123 74 43 26 81 48 83 48 3 0 31 16 62 37 31 20 102 63 157 96 55
33 129 79 165 102 36 23 97 61 135 86 83 52 439 295 510 348 28 21 95 71 150
112 55 41 107 79 115 86 38 30 126 98 207 159 48 37 102 79 119 93 17 14 40
33 50 41 10 9 77 63 147 120 70 58 149 122 175 143 26 22 58 49 72 60 14 12
75 64 135 116 61 52 117 102 126 110 9 9 31 29 50 46 85 73 230 204 290 261
36 34 90 83 120 110 30 26 104 93 164 150 61 56 121 112 135 124 14 12 72 65
130 118 57 53 129 120 160 148 153 140 344 316 420 388 47 45 122 114 165 155
481 448 1230 1200 1535 1540 41 46 84 93 96 105 11 12 51 56 88 99 38 42 72
77 76 77 5 0 28 -64 53 -142z m-6863 -4960 c-19 -12 -57 -36 -85 -53 -27 -18
-77 -47 -110 -65 -33 -18 -73 -41 -90 -50 -133 -74 -177 -98 -258 -141 -219
-118 -1061 -529 -1082 -529 -20 0 18 26 93 64 48 24 110 56 137 73 28 16 73
39 100 50 46 20 144 69 540 273 184 94 365 189 470 245 205 109 291 153 305
154 8 0 -1 -9 -20 -21z m-1645 -848 c-3 -5 -10 -10 -16 -10 -5 0 -9 5 -9 10 0
6 7 10 16 10 8 0 12 -4 9 -10z m-35 -15 c0 -2 -17 -11 -37 -20 -21 -9 -46 -21
-55 -26 -11 -5 -18 -5 -18 0 0 12 69 49 93 50 9 1 17 -1 17 -4z"/>
<path d="M37349 42166 c-47 -17 -87 -48 -113 -89 -16 -25 -21 -49 -21 -108 0
-42 5 -87 12 -100 6 -13 54 -132 106 -264 53 -132 150 -377 217 -545 67 -168
132 -332 144 -365 13 -33 46 -123 75 -200 29 -77 56 -149 61 -160 5 -11 34
-90 65 -175 31 -85 63 -173 72 -195 8 -22 30 -85 48 -140 19 -55 68 -199 110
-320 41 -121 136 -402 211 -625 152 -457 183 -530 249 -588 73 -64 192 -80
275 -37 166 86 194 304 90 700 -28 107 -79 281 -94 324 -7 20 -19 54 -25 76
-7 22 -24 70 -37 108 -13 37 -35 97 -48 135 -139 389 -327 854 -489 1207 -71
153 -265 529 -526 1015 -28 52 -68 129 -89 170 -76 153 -181 216 -293 176z"/>
<path d="M35285 42098 c-85 -30 -156 -113 -175 -204 -22 -104 -13 -128 192
-539 254 -506 442 -874 491 -960 212 -370 444 -698 619 -877 153 -155 248
-208 374 -208 154 0 256 83 290 237 14 65 15 86 4 147 -43 252 -169 500 -530
1041 -120 180 -146 217 -265 381 -72 101 -232 313 -330 439 -97 125 -193 250
-291 379 -67 89 -127 141 -187 163 -40 14 -152 15 -192 1z"/>
<path d="M7840 41060 c-14 -4 -45 -13 -70 -20 -75 -22 -277 -124 -410 -207
-586 -365 -1190 -902 -1856 -1649 -86 -96 -320 -376 -366 -437 -18 -24 -78
-104 -134 -178 -356 -473 -492 -694 -1059 -1719 -29 -52 -65 -117 -80 -145
-29 -52 -143 -264 -226 -423 -44 -82 -49 -99 -49 -155 0 -77 23 -130 78 -179
93 -84 228 -72 323 29 20 21 117 155 216 298 221 320 254 367 323 469 253 370
506 735 521 752 11 11 19 24 19 28 0 4 13 24 29 44 17 20 94 123 172 227 141
188 335 434 434 550 160 187 397 458 445 510 31 33 87 94 125 135 38 41 180
187 315 323 467 473 876 823 1360 1162 109 76 209 177 240 239 62 129 0 285
-135 342 -37 15 -172 18 -215 4z"/>
<path d="M3704 39646 c-175 -65 -416 -322 -678 -723 -47 -72 -86 -134 -86
-137 0 -3 -37 -70 -81 -148 -85 -148 -302 -571 -356 -693 -18 -38 -45 -100
-62 -138 -17 -37 -31 -70 -31 -72 0 -2 -12 -30 -26 -62 -14 -32 -36 -83 -49
-113 -13 -30 -30 -71 -38 -90 -9 -19 -25 -60 -37 -90 -12 -30 -28 -71 -37 -90
-27 -63 -31 -73 -107 -261 -159 -393 -277 -706 -283 -745 -13 -97 42 -200 131
-246 78 -41 190 -24 261 40 34 30 79 102 152 242 39 74 95 180 125 235 57 105
120 223 208 390 29 55 60 114 70 130 9 17 45 84 80 150 162 309 477 894 525
975 18 30 45 78 60 105 110 200 316 533 477 770 134 197 158 247 158 332 0 75
-28 151 -71 190 -80 73 -192 91 -305 49z"/>
</g>
</svg>
